<?xml version="1.0" encoding="UTF-8" standalone="no"?><svg xmlns="http://www.w3.org/2000/svg" xmlns:xlink="http://www.w3.org/1999/xlink" contentStyleType="text/css" height="479px" preserveAspectRatio="none" style="width:1652px;height:479px;background:#FFFFFF;" version="1.1" viewBox="0 0 1652 479" width="1652px" zoomAndPan="magnify"><defs/><g><!--MD5=[3c4ce07fd3ebfba01a890acf871b665d]
class WordSimLoader--><g id="elem_WordSimLoader"><rect codeLine="2" fill="#F1F1F1" height="64.2969" id="WordSimLoader" rx="2.5" ry="2.5" style="stroke:#181818;stroke-width:0.5;" width="352" x="7" y="56"/><ellipse cx="124.75" cy="72" fill="#ADD1B2" rx="11" ry="11" style="stroke:#181818;stroke-width:1.0;"/><path d="M127.7188,77.6406 Q127.1406,77.9375 126.5,78.0781 Q125.8594,78.2344 125.1563,78.2344 Q122.6563,78.2344 121.3281,76.5938 Q120.0156,74.9375 120.0156,71.8125 Q120.0156,68.6875 121.3281,67.0313 Q122.6563,65.375 125.1563,65.375 Q125.8594,65.375 126.5,65.5313 Q127.1563,65.6875 127.7188,65.9844 L127.7188,68.7031 Q127.0938,68.125 126.5,67.8594 Q125.9063,67.5781 125.2813,67.5781 Q123.9375,67.5781 123.25,68.6563 Q122.5625,69.7188 122.5625,71.8125 Q122.5625,73.9063 123.25,74.9844 Q123.9375,76.0469 125.2813,76.0469 Q125.9063,76.0469 126.5,75.7813 Q127.0938,75.5 127.7188,74.9219 L127.7188,77.6406 Z " fill="#000000"/><text fill="#000000" font-family="sans-serif" font-size="14" lengthAdjust="spacing" textLength="108" x="145.25" y="76.8467">WordSimLoader</text><line style="stroke:#181818;stroke-width:0.5;" x1="8" x2="358" y1="88" y2="88"/><line style="stroke:#181818;stroke-width:0.5;" x1="8" x2="358" y1="96" y2="96"/><ellipse cx="18" cy="107" fill="#84BE84" rx="3" ry="3" style="stroke:#038048;stroke-width:1.0;"/><text fill="#000000" font-family="sans-serif" font-size="14" lengthAdjust="spacing" text-decoration="underline" textLength="326" x="27" y="112.9951">loadUsingProperties(): List&lt;WordSimMeasure&gt;</text></g><!--MD5=[fb71c15218703b367ced4e2e9daddf23]
class WordSimMeasure--><g id="elem_WordSimMeasure"><rect codeLine="6" fill="#F1F1F1" height="64.2969" id="WordSimMeasure" rx="2.5" ry="2.5" style="stroke:#181818;stroke-width:0.5;" width="377" x="394.5" y="56"/><ellipse cx="518.25" cy="72" fill="#B4A7E5" rx="11" ry="11" style="stroke:#181818;stroke-width:1.0;"/><path d="M514.1719,67.7656 L514.1719,65.6094 L521.5625,65.6094 L521.5625,67.7656 L519.0938,67.7656 L519.0938,75.8438 L521.5625,75.8438 L521.5625,78 L514.1719,78 L514.1719,75.8438 L516.6406,75.8438 L516.6406,67.7656 L514.1719,67.7656 Z " fill="#000000"/><text fill="#000000" font-family="sans-serif" font-size="14" font-style="italic" lengthAdjust="spacing" textLength="121" x="538.75" y="76.8467">WordSimMeasure</text><line style="stroke:#181818;stroke-width:0.5;" x1="395.5" x2="770.5" y1="88" y2="88"/><line style="stroke:#181818;stroke-width:0.5;" x1="395.5" x2="770.5" y1="96" y2="96"/><ellipse cx="405.5" cy="107" fill="#84BE84" rx="3" ry="3" style="stroke:#038048;stroke-width:1.0;"/><text fill="#000000" font-family="sans-serif" font-size="14" lengthAdjust="spacing" textLength="351" x="414.5" y="112.9951">areWordsSimilar(ctx: ComparisonContext): boolean</text></g><!--MD5=[7f3c61243864f3aaf33a256244f07abb]
class ComparisonContext--><g id="elem_ComparisonContext"><rect codeLine="10" fill="#F1F1F1" height="162.0781" id="ComparisonContext" rx="2.5" ry="2.5" style="stroke:#181818;stroke-width:0.5;" width="173" x="806.5" y="7"/><ellipse cx="823.3" cy="23" fill="#ADD1B2" rx="11" ry="11" style="stroke:#181818;stroke-width:1.0;"/><path d="M826.2688,28.6406 Q825.6906,28.9375 825.05,29.0781 Q824.4094,29.2344 823.7063,29.2344 Q821.2063,29.2344 819.8781,27.5938 Q818.5656,25.9375 818.5656,22.8125 Q818.5656,19.6875 819.8781,18.0313 Q821.2063,16.375 823.7063,16.375 Q824.4094,16.375 825.05,16.5313 Q825.7063,16.6875 826.2688,16.9844 L826.2688,19.7031 Q825.6438,19.125 825.05,18.8594 Q824.4563,18.5781 823.8313,18.5781 Q822.4875,18.5781 821.8,19.6563 Q821.1125,20.7188 821.1125,22.8125 Q821.1125,24.9063 821.8,25.9844 Q822.4875,27.0469 823.8313,27.0469 Q824.4563,27.0469 825.05,26.7813 Q825.6438,26.5 826.2688,25.9219 L826.2688,28.6406 Z " fill="#000000"/><text fill="#000000" font-family="sans-serif" font-size="14" lengthAdjust="spacing" textLength="137" x="837.7" y="27.8467">ComparisonContext</text><line style="stroke:#181818;stroke-width:0.5;" x1="807.5" x2="978.5" y1="39" y2="39"/><ellipse cx="817.5" cy="50" fill="none" rx="3" ry="3" style="stroke:#038048;stroke-width:1.0;"/><text fill="#000000" font-family="sans-serif" font-size="14" lengthAdjust="spacing" textLength="114" x="826.5" y="55.9951">firstString: String</text><ellipse cx="817.5" cy="66.2969" fill="none" rx="3" ry="3" style="stroke:#038048;stroke-width:1.0;"/><text fill="#000000" font-family="sans-serif" font-size="14" lengthAdjust="spacing" textLength="141" x="826.5" y="72.292">secondString: String</text><ellipse cx="817.5" cy="82.5938" fill="none" rx="3" ry="3" style="stroke:#038048;stroke-width:1.0;"/><text fill="#000000" font-family="sans-serif" font-size="14" lengthAdjust="spacing" textLength="109" x="826.5" y="88.5889">firstWord: IWord</text><ellipse cx="817.5" cy="98.8906" fill="none" rx="3" ry="3" style="stroke:#038048;stroke-width:1.0;"/><text fill="#000000" font-family="sans-serif" font-size="14" lengthAdjust="spacing" textLength="136" x="826.5" y="104.8857">secondWord: IWord</text><ellipse cx="817.5" cy="115.1875" fill="none" rx="3" ry="3" style="stroke:#038048;stroke-width:1.0;"/><text fill="#000000" font-family="sans-serif" font-size="14" lengthAdjust="spacing" textLength="136" x="826.5" y="121.1826">lemmatize: boolean</text><line style="stroke:#181818;stroke-width:0.5;" x1="807.5" x2="978.5" y1="128.4844" y2="128.4844"/><ellipse cx="817.5" cy="139.4844" fill="#84BE84" rx="3" ry="3" style="stroke:#038048;stroke-width:1.0;"/><text fill="#000000" font-family="sans-serif" font-size="14" lengthAdjust="spacing" textLength="120" x="826.5" y="145.4795">firstTerm(): String</text><ellipse cx="817.5" cy="155.7813" fill="#84BE84" rx="3" ry="3" style="stroke:#038048;stroke-width:1.0;"/><text fill="#000000" font-family="sans-serif" font-size="14" lengthAdjust="spacing" textLength="147" x="826.5" y="161.7764">secondTerm(): String</text></g><!--MD5=[41e6061d172f5a6b51919fa8e7607080]
class ComparisonStrategy--><g id="elem_ComparisonStrategy"><rect codeLine="21" fill="#F1F1F1" height="64.2969" id="ComparisonStrategy" rx="2.5" ry="2.5" style="stroke:#181818;stroke-width:0.5;" width="631" x="1014.5" y="56"/><ellipse cx="1255.75" cy="72" fill="#B4A7E5" rx="11" ry="11" style="stroke:#181818;stroke-width:1.0;"/><path d="M1251.6719,67.7656 L1251.6719,65.6094 L1259.0625,65.6094 L1259.0625,67.7656 L1256.5938,67.7656 L1256.5938,75.8438 L1259.0625,75.8438 L1259.0625,78 L1251.6719,78 L1251.6719,75.8438 L1254.1406,75.8438 L1254.1406,67.7656 L1251.6719,67.7656 Z " fill="#000000"/><text fill="#000000" font-family="sans-serif" font-size="14" font-style="italic" lengthAdjust="spacing" textLength="140" x="1276.25" y="76.8467">ComparisonStrategy</text><line style="stroke:#181818;stroke-width:0.5;" x1="1015.5" x2="1644.5" y1="88" y2="88"/><line style="stroke:#181818;stroke-width:0.5;" x1="1015.5" x2="1644.5" y1="96" y2="96"/><ellipse cx="1025.5" cy="107" fill="#84BE84" rx="3" ry="3" style="stroke:#038048;stroke-width:1.0;"/><text fill="#000000" font-family="sans-serif" font-size="14" lengthAdjust="spacing" textLength="605" x="1034.5" y="112.9951">areWordsSimilar(ctx: ComparisonContext, measures: List&lt;WordSimMeasure&gt;): boolean</text></g><!--MD5=[5948dac722ebc8fc76189c53d595ef46]
class AtleastOneStrategy--><g id="elem_AtleastOneStrategy"><rect fill="#F1F1F1" height="48" id="AtleastOneStrategy" rx="2.5" ry="2.5" style="stroke:#181818;stroke-width:0.5;" width="165" x="1247.5" y="327"/><ellipse cx="1262.5" cy="343" fill="#ADD1B2" rx="11" ry="11" style="stroke:#181818;stroke-width:1.0;"/><path d="M1265.4688,348.6406 Q1264.8906,348.9375 1264.25,349.0781 Q1263.6094,349.2344 1262.9063,349.2344 Q1260.4063,349.2344 1259.0781,347.5938 Q1257.7656,345.9375 1257.7656,342.8125 Q1257.7656,339.6875 1259.0781,338.0313 Q1260.4063,336.375 1262.9063,336.375 Q1263.6094,336.375 1264.25,336.5313 Q1264.9063,336.6875 1265.4688,336.9844 L1265.4688,339.7031 Q1264.8438,339.125 1264.25,338.8594 Q1263.6563,338.5781 1263.0313,338.5781 Q1261.6875,338.5781 1261,339.6563 Q1260.3125,340.7188 1260.3125,342.8125 Q1260.3125,344.9063 1261,345.9844 Q1261.6875,347.0469 1263.0313,347.0469 Q1263.6563,347.0469 1264.25,346.7813 Q1264.8438,346.5 1265.4688,345.9219 L1265.4688,348.6406 Z " fill="#000000"/><text fill="#000000" font-family="sans-serif" font-size="14" lengthAdjust="spacing" textLength="133" x="1276.5" y="347.8467">AtleastOneStrategy</text><line style="stroke:#181818;stroke-width:0.5;" x1="1248.5" x2="1411.5" y1="359" y2="359"/><line style="stroke:#181818;stroke-width:0.5;" x1="1248.5" x2="1411.5" y1="367" y2="367"/></g><!--MD5=[0171903fc1d705beb94c13d248205805]
class WordSimUtils--><g id="elem_WordSimUtils"><rect codeLine="28" fill="#F1F1F1" height="243.5625" id="WordSimUtils" rx="2.5" ry="2.5" style="stroke:#181818;stroke-width:0.5;" width="679" x="243.5" y="229"/><ellipse cx="533.75" cy="245" fill="#ADD1B2" rx="11" ry="11" style="stroke:#181818;stroke-width:1.0;"/><path d="M536.7188,250.6406 Q536.1406,250.9375 535.5,251.0781 Q534.8594,251.2344 534.1563,251.2344 Q531.6563,251.2344 530.3281,249.5938 Q529.0156,247.9375 529.0156,244.8125 Q529.0156,241.6875 530.3281,240.0313 Q531.6563,238.375 534.1563,238.375 Q534.8594,238.375 535.5,238.5313 Q536.1563,238.6875 536.7188,238.9844 L536.7188,241.7031 Q536.0938,241.125 535.5,240.8594 Q534.9063,240.5781 534.2813,240.5781 Q532.9375,240.5781 532.25,241.6563 Q531.5625,242.7188 531.5625,244.8125 Q531.5625,246.9063 532.25,247.9844 Q532.9375,249.0469 534.2813,249.0469 Q534.9063,249.0469 535.5,248.7813 Q536.0938,248.5 536.7188,247.9219 L536.7188,250.6406 Z " fill="#000000"/><text fill="#000000" font-family="sans-serif" font-size="14" lengthAdjust="spacing" textLength="90" x="554.25" y="249.8467">WordSimUtils</text><line style="stroke:#181818;stroke-width:0.5;" x1="244.5" x2="921.5" y1="261" y2="261"/><rect fill="none" height="6" style="stroke:#C82930;stroke-width:1.0;" width="6" x="251.5" y="269"/><text fill="#000000" font-family="sans-serif" font-size="14" lengthAdjust="spacing" textLength="246" x="263.5" y="277.9951">measures: List&lt;WordSimMeasure&gt;</text><rect fill="none" height="6" style="stroke:#C82930;stroke-width:1.0;" width="6" x="251.5" y="285.2969"/><text fill="#000000" font-family="sans-serif" font-size="14" lengthAdjust="spacing" textLength="205" x="263.5" y="294.292">strategy: ComparisonStrategy</text><line style="stroke:#181818;stroke-width:0.5;" x1="244.5" x2="921.5" y1="301.5938" y2="301.5938"/><ellipse cx="254.5" cy="312.5938" fill="#84BE84" rx="3" ry="3" style="stroke:#038048;stroke-width:1.0;"/><text fill="#000000" font-family="sans-serif" font-size="14" lengthAdjust="spacing" text-decoration="underline" textLength="391" x="263.5" y="318.5889">setMeasures(measures: Collection&lt;WordSimMeasure&gt;)</text><ellipse cx="254.5" cy="328.8906" fill="#84BE84" rx="3" ry="3" style="stroke:#038048;stroke-width:1.0;"/><text fill="#000000" font-family="sans-serif" font-size="14" lengthAdjust="spacing" text-decoration="underline" textLength="294" x="263.5" y="334.8857">setStrategy(strategy: ComparisonStrategy)</text><ellipse cx="254.5" cy="345.1875" fill="#84BE84" rx="3" ry="3" style="stroke:#038048;stroke-width:1.0;"/><text fill="#000000" font-family="sans-serif" font-size="14" lengthAdjust="spacing" text-decoration="underline" textLength="564" x="263.5" y="351.1826">areWordsSimilar(ctx: ComparisonContext, strategy: ComparisonStrategy): boolean</text><ellipse cx="254.5" cy="361.4844" fill="#84BE84" rx="3" ry="3" style="stroke:#038048;stroke-width:1.0;"/><text fill="#000000" font-family="sans-serif" font-size="14" lengthAdjust="spacing" text-decoration="underline" textLength="351" x="263.5" y="367.4795">areWordsSimilar(ctx: ComparisonContext): boolean</text><ellipse cx="254.5" cy="377.7813" fill="#84BE84" rx="3" ry="3" style="stroke:#038048;stroke-width:1.0;"/><text fill="#000000" font-family="sans-serif" font-size="14" lengthAdjust="spacing" text-decoration="underline" textLength="440" x="263.5" y="383.7764">areWordsSimilar(firstWord: String, secondWord: String): boolean</text><ellipse cx="254.5" cy="394.0781" fill="#84BE84" rx="3" ry="3" style="stroke:#038048;stroke-width:1.0;"/><text fill="#000000" font-family="sans-serif" font-size="14" lengthAdjust="spacing" text-decoration="underline" textLength="653" x="263.5" y="400.0732">areWordsSimilar(firstWord: String, secondWord: String, strategy: ComparisonStrategy): boolean</text><ellipse cx="254.5" cy="410.375" fill="#84BE84" rx="3" ry="3" style="stroke:#038048;stroke-width:1.0;"/><text fill="#000000" font-family="sans-serif" font-size="14" lengthAdjust="spacing" text-decoration="underline" textLength="438" x="263.5" y="416.3701">areWordsSimilar(firstWord: IWord, secondWord: IWord): boolean</text><ellipse cx="254.5" cy="426.6719" fill="#84BE84" rx="3" ry="3" style="stroke:#038048;stroke-width:1.0;"/><text fill="#000000" font-family="sans-serif" font-size="14" lengthAdjust="spacing" text-decoration="underline" textLength="651" x="263.5" y="432.667">areWordsSimilar(firstWord: IWord, secondWord: IWord, strategy: ComparisonStrategy): boolean</text><ellipse cx="254.5" cy="442.9688" fill="#84BE84" rx="3" ry="3" style="stroke:#038048;stroke-width:1.0;"/><text fill="#000000" font-family="sans-serif" font-size="14" lengthAdjust="spacing" text-decoration="underline" textLength="439" x="263.5" y="448.9639">areWordsSimilar(firstWord: String, secondWord: IWord): boolean</text><ellipse cx="254.5" cy="459.2656" fill="#84BE84" rx="3" ry="3" style="stroke:#038048;stroke-width:1.0;"/><text fill="#000000" font-family="sans-serif" font-size="14" lengthAdjust="spacing" text-decoration="underline" textLength="652" x="263.5" y="465.2607">areWordsSimilar(firstWord: String, secondWord: IWord, strategy: ComparisonStrategy): boolean</text></g><!--MD5=[59f67197d46081aa943c7c577eeeb314]
reverse link ComparisonStrategy to AtleastOneStrategy--><g id="link_ComparisonStrategy_AtleastOneStrategy"><path codeLine="25" d="M1330,140.52 C1330,197.02 1330,285.19 1330,326.79 " fill="none" id="ComparisonStrategy-backto-AtleastOneStrategy" style="stroke:#181818;stroke-width:1.0;stroke-dasharray:7.0,7.0;"/><polygon fill="none" points="1323,140.22,1330,120.22,1337,140.22,1323,140.22" style="stroke:#181818;stroke-width:1.0;"/></g><!--MD5=[b1ece4262cbfc8a183231ce107849ff9]
link WordSimMeasure to WordSimUtils--><g id="link_WordSimMeasure_WordSimUtils"><path codeLine="26" d="M583,120.22 C583,144.45 583,179.82 583,215.59 " fill="none" id="WordSimMeasure-to-WordSimUtils" style="stroke:#181818;stroke-width:1.0;"/><polygon fill="none" points="583,228.76,587,222.76,583,216.76,579,222.76,583,228.76" style="stroke:#181818;stroke-width:1.0;"/><text fill="#000000" font-family="sans-serif" font-size="13" lengthAdjust="spacing" textLength="7" x="575.2781" y="140.4622">*</text></g><!--MD5=[ef691854a40b9ede27e7dcd31e3d2606]
@startuml

class WordSimLoader {
+{static} loadUsingProperties(): List<WordSimMeasure>
}

interface WordSimMeasure {
+areWordsSimilar(ctx: ComparisonContext): boolean
}

class ComparisonContext {
+firstString: String
+secondString: String
+firstWord: IWord
+secondWord: IWord
+lemmatize: boolean

+firstTerm(): String
+secondTerm(): String
}

interface ComparisonStrategy {
+areWordsSimilar(ctx: ComparisonContext, measures: List<WordSimMeasure>): boolean
}

ComparisonStrategy <|.. AtleastOneStrategy
WordSimMeasure "*"- -o WordSimUtils

class WordSimUtils {
-measures: List<WordSimMeasure>
-strategy: ComparisonStrategy

+{static} setMeasures(measures: Collection<WordSimMeasure>)
+{static} setStrategy(strategy: ComparisonStrategy)
+{static} areWordsSimilar(ctx: ComparisonContext, strategy: ComparisonStrategy): boolean
+{static} areWordsSimilar(ctx: ComparisonContext): boolean
+{static} areWordsSimilar(firstWord: String, secondWord: String): boolean
+{static} areWordsSimilar(firstWord: String, secondWord: String, strategy: ComparisonStrategy): boolean
+{static} areWordsSimilar(firstWord: IWord, secondWord: IWord): boolean
+{static} areWordsSimilar(firstWord: IWord, secondWord: IWord, strategy: ComparisonStrategy): boolean
+{static} areWordsSimilar(firstWord: String, secondWord: IWord): boolean
+{static} areWordsSimilar(firstWord: String, secondWord: IWord, strategy: ComparisonStrategy): boolean
}

@enduml

PlantUML version 1.2022.4(Sat Apr 09 13:29:17 UTC 2022)
(GPL source distribution)
Java Runtime: OpenJDK Runtime Environment
JVM: OpenJDK 64-Bit Server VM
Default Encoding: UTF-8
Language: en
Country: null
--></g></svg>